<svg width="1195" height="140.401" viewBox="0 0 1195 140.401" xmlns="http://www.w3.org/2000/svg"><g id="svgGroup" stroke-linecap="round" fill-rule="evenodd" font-size="9pt" stroke="#000" stroke-width="0.25mm" fill="#000" style="stroke:#000;stroke-width:0.25mm;fill:#000"><path d="M 346 86.2 L 349.6 69 L 309.8 130.6 Q 306.6 134.6 300.4 134.6 Q 295.2 134.6 290.7 132 Q 286.2 129.4 286.8 126.8 L 275.8 62.2 L 259.4 128.4 A 23.967 23.967 0 0 1 258.522 131.288 Q 257.207 134.747 255.1 136.2 Q 252.884 137.729 247.69 138.089 A 50.635 50.635 0 0 1 244.2 138.2 A 29.082 29.082 0 0 1 240.974 138.034 Q 237.184 137.61 235.1 136.1 A 6.506 6.506 0 0 1 232.755 132.821 Q 232.374 131.699 232.254 130.314 A 15.31 15.31 0 0 1 232.2 129 Q 232.2 126.8 232.8 124.8 L 260.2 16.6 Q 262.4 7.8 264.9 4.9 Q 267.4 2 274 2 A 41.589 41.589 0 0 1 278.799 2.264 Q 281.369 2.563 283.6 3.2 Q 287.8 4.4 288 6.8 L 288 7.2 L 304 106.6 Q 312.6 92.8 332.3 61 Q 347.383 36.653 357.483 20.513 A 4387.628 4387.628 0 0 1 363.2 11.4 Q 364.899 7.153 366.958 5.432 A 5.856 5.856 0 0 1 367.7 4.9 A 15.923 15.923 0 0 1 371.326 3.319 A 19.935 19.935 0 0 1 373.5 2.8 Q 376.74 2.211 378.341 2.008 A 28.876 28.876 0 0 1 378.4 2 A 196.826 196.826 0 0 1 381.393 2.589 Q 386.303 3.597 388.1 4.3 A 7.115 7.115 0 0 1 389.504 5.025 Q 390.474 5.683 391 6.606 A 4.407 4.407 0 0 1 391.2 7 Q 387 23.2 380.2 52.9 A 23528.867 23528.867 0 0 1 377.436 64.961 Q 373.944 80.174 372.026 88.411 A 1931.774 1931.774 0 0 1 371 92.8 Q 367.219 110.332 363.881 124.466 A 1138.284 1138.284 0 0 1 362.8 129 Q 360.888 136.511 357.484 138.894 A 5.944 5.944 0 0 1 354 140 Q 343.359 140 338.871 137.124 A 6.485 6.485 0 0 1 335.6 131.4 Q 335.6 134.644 345.065 90.561 A 6444.789 6444.789 0 0 0 346 86.2 Z M 860 85.6 L 849.2 128.4 A 26.194 26.194 0 0 1 848.365 131.213 Q 847.321 134.079 845.812 135.585 A 6.409 6.409 0 0 1 845.1 136.2 Q 842.4 138.2 834.4 138.2 A 29.082 29.082 0 0 1 831.174 138.034 Q 827.384 137.61 825.3 136.1 A 6.506 6.506 0 0 1 822.955 132.821 Q 822.574 131.699 822.454 130.314 A 15.31 15.31 0 0 1 822.4 129 Q 822.4 126.8 823 124.8 L 850.4 16.6 Q 852.6 7.8 855.1 4.9 Q 857.6 2 864.2 2 A 42.381 42.381 0 0 1 869.99 2.38 A 33.935 33.935 0 0 1 874.1 3.2 Q 878.6 4.4 878.8 6.8 A 1.946 1.946 0 0 1 878.759 7.057 Q 878.475 8.5 876.2 17.6 Q 872.2 33 864.8 64.4 Q 894.4 58.4 921 56.2 L 930.2 19 A 45.02 45.02 0 0 1 931.596 14.401 Q 932.419 12.163 933.407 10.381 A 17.839 17.839 0 0 1 935.7 7.1 A 15.579 15.579 0 0 1 941.94 2.92 A 20.972 20.972 0 0 1 945.2 2 A 196.826 196.826 0 0 1 948.193 2.589 Q 953.103 3.597 954.9 4.3 A 7.115 7.115 0 0 1 956.304 5.025 Q 957.274 5.683 957.8 6.606 A 4.407 4.407 0 0 1 958 7 Q 955.4 14.4 954.1 20.7 A 1397.307 1397.307 0 0 0 953.651 22.884 Q 952.92 26.454 952.681 27.748 A 26.558 26.558 0 0 0 952.6 28.2 A 503.026 503.026 0 0 1 946.512 56.344 A 545.227 545.227 0 0 1 946.4 56.8 A 20.866 20.866 0 0 1 949.721 58.588 Q 951.4 59.719 952.45 61.045 A 7.778 7.778 0 0 1 954.2 66 Q 954.2 70.637 946.274 74.124 A 46.962 46.962 0 0 1 941.8 75.8 Q 940.003 82.335 935.67 101.416 A 3096.743 3096.743 0 0 0 933.6 110.6 Q 932.2 118 929.6 129 Q 927.688 136.511 924.284 138.894 A 5.944 5.944 0 0 1 920.8 140 Q 910.159 140 905.671 137.124 A 6.485 6.485 0 0 1 902.4 131.4 Q 902.4 129.6 915.8 77.2 Q 879.517 81.621 862.738 85.023 A 175.29 175.29 0 0 0 860 85.6 Z M 691.4 21 L 682.6 21.6 Q 678.006 21.907 670.951 22.389 A 15342.823 15342.823 0 0 0 666.4 22.7 A 1004.015 1004.015 0 0 0 658.244 23.296 Q 654.634 23.573 650.673 23.899 A 1816.753 1816.753 0 0 0 642.4 24.6 L 633.4 60.4 Q 645.372 58.5 653.463 57.322 A 828.513 828.513 0 0 1 654.3 57.2 Q 662.6 56 672.8 55.2 A 20.866 20.866 0 0 1 676.121 56.988 Q 677.8 58.119 678.85 59.445 A 7.778 7.778 0 0 1 680.6 64.4 A 7.769 7.769 0 0 1 679.584 68.169 Q 678.688 69.807 677 71.4 Q 673.4 74.8 668.8 76.2 L 657.4 77.4 Q 639.2 79.4 628.2 81.4 Q 625.8 92.4 621.4 109.2 L 619.8 115.4 Q 646.4 110.4 671.2 108.4 A 20.866 20.866 0 0 1 674.521 110.188 Q 676.2 111.319 677.25 112.645 A 7.778 7.778 0 0 1 679 117.6 A 7.769 7.769 0 0 1 677.984 121.369 Q 677.088 123.007 675.4 124.6 Q 671.8 128 667.2 129.4 Q 629.2 133.8 613.6 136.8 Q 611.931 137.913 606.648 137.994 A 55.543 55.543 0 0 1 605.8 138 A 11.556 11.556 0 0 1 598.349 135.255 A 17.534 17.534 0 0 1 595.9 132.8 A 20.931 20.931 0 0 1 593.197 128.677 A 15.037 15.037 0 0 1 591.6 122 Q 591.6 119.8 592.2 117.8 L 615 27.6 L 614.4 27.6 Q 614.224 25.669 612.199 22.967 A 24.892 24.892 0 0 0 611.6 22.2 A 3.673 3.673 0 0 0 611.483 21.991 Q 611.199 21.511 610.383 20.277 A 190.512 190.512 0 0 0 610 19.7 A 9.473 9.473 0 0 1 609.12 18.075 Q 608.673 16.996 608.61 15.944 A 5.76 5.76 0 0 1 608.6 15.6 A 9.23 9.23 0 0 1 611.684 9.355 Q 612.99 8.128 614.845 7.095 A 22.721 22.721 0 0 1 616.2 6.4 A 359.311 359.311 0 0 1 624.45 5.407 Q 637.95 3.925 658.2 2.5 Q 685.2 0.6 696.8 0.4 A 19.974 19.974 0 0 1 700.034 2.493 Q 704 5.696 704 10 Q 704 13.124 701.063 15.872 A 15.798 15.798 0 0 1 700.1 16.7 Q 696.2 19.8 691.4 21 Z M 790 41.2 L 790.2 34.8 Q 790.2 31.877 787.562 29.085 A 17.179 17.179 0 0 0 786.2 27.8 A 19.931 19.931 0 0 0 783.878 26.081 Q 781.191 24.4 778.8 24.4 Q 767.6 24.4 754.2 34.5 A 76.003 76.003 0 0 0 738.421 50.771 A 96.692 96.692 0 0 0 731.6 61.7 A 77.078 77.078 0 0 0 722.4 98.8 Q 722.4 107.965 729.545 113.756 A 23.796 23.796 0 0 0 729.6 113.8 A 25.764 25.764 0 0 0 741.295 119.034 A 35.781 35.781 0 0 0 747.8 119.6 Q 751.052 119.6 756.099 117.642 A 53.439 53.439 0 0 0 757.2 117.2 Q 763 114.8 767.9 111.2 Q 772.772 107.621 774.382 104.239 A 9.79 9.79 0 0 0 774.4 104.2 Q 776.355 100.128 779.636 95.26 A 114.041 114.041 0 0 1 781.2 93 A 25.021 25.021 0 0 1 783.383 90.306 Q 786.691 86.8 790 86.8 Q 800.2 86.8 803.9 91.2 A 17.27 17.27 0 0 1 806.694 95.725 A 14.686 14.686 0 0 1 807.8 100.8 A 38.315 38.315 0 0 1 803.714 109.224 Q 800.646 114.048 795.9 118.9 A 65.04 65.04 0 0 1 782.249 129.459 A 82.358 82.358 0 0 1 773.5 133.9 Q 760 139.8 744 139.8 A 79.139 79.139 0 0 1 730.819 138.779 Q 716.26 136.314 708.2 127.9 A 40.532 40.532 0 0 1 697.201 104.14 A 55.08 55.08 0 0 1 696.8 97.4 A 102.064 102.064 0 0 1 701.882 64.861 A 93.289 93.289 0 0 1 708.6 49.5 Q 720.4 28 740.4 15.7 Q 760.4 3.4 783.6 3.4 Q 792.8 3.4 800.4 7.6 Q 808 11.8 812.4 19.7 A 34.416 34.416 0 0 1 816.28 31.232 A 45.077 45.077 0 0 1 816.8 38.2 A 13.361 13.361 0 0 1 812.712 48.003 A 16.881 16.881 0 0 1 812.3 48.4 Q 807.8 52.6 800.2 52.6 Q 796.977 52.6 794.88 51.677 A 6.218 6.218 0 0 1 792.1 49.4 A 12.104 12.104 0 0 1 790.493 45.622 Q 790 43.622 790 41.2 Z M 1043.8 33.2 A 9.291 9.291 0 0 0 1040.661 26.102 A 12.75 12.75 0 0 0 1039.7 25.3 Q 1035.6 22.2 1029.2 22.2 A 46.468 46.468 0 0 0 1023.342 22.552 Q 1020.234 22.947 1017.542 23.787 A 28.882 28.882 0 0 0 1017.5 23.8 A 27.504 27.504 0 0 0 1010.131 27.438 A 33.24 33.24 0 0 0 1007.8 29.2 A 18.023 18.023 0 0 0 1006.202 30.575 Q 1004.856 31.888 1004.2 33.2 Q 1003.423 34.755 1002.766 36.914 A 38.695 38.695 0 0 0 1002.4 38.2 Q 1001.418 41.344 999.953 42.751 A 5.138 5.138 0 0 1 999.9 42.8 A 3.845 3.845 0 0 1 998.717 43.523 Q 997.513 44.015 995.568 44.15 A 22.795 22.795 0 0 1 994 44.2 Q 988.716 44.2 985.062 42.389 A 13.378 13.378 0 0 1 983.1 41.2 A 9.582 9.582 0 0 1 979.081 34.272 A 12.999 12.999 0 0 1 979 32.8 A 13.88 13.88 0 0 1 980.453 26.79 Q 981.455 24.689 983.148 22.551 A 34.997 34.997 0 0 1 986.2 19.2 Q 993.4 12.2 1005.4 7.6 Q 1017.4 3 1031 3 Q 1042.6 3 1051.7 6.7 A 40.401 40.401 0 0 1 1059.126 10.608 A 30.184 30.184 0 0 1 1065.9 16.8 Q 1071 23.2 1071 31.2 Q 1071 40.4 1063.9 50.5 A 118.482 118.482 0 0 1 1052.72 64.057 A 140.615 140.615 0 0 1 1046.7 70 A 380.232 380.232 0 0 1 1038.38 77.5 Q 1030.825 84.125 1021.2 92 Q 1018.806 94.026 1013.189 98.766 A 27219.999 27219.999 0 0 1 1012.2 99.6 A 401.876 401.876 0 0 0 1007.681 103.468 Q 1005.474 105.386 1003.572 107.107 A 200.567 200.567 0 0 0 1001.4 109.1 A 106.715 106.715 0 0 0 998.325 112.077 Q 996.841 113.576 995.6 114.968 A 55.486 55.486 0 0 0 994.2 116.6 Q 1001.244 114.916 1012.977 112.645 A 1078.847 1078.847 0 0 1 1020.6 111.2 Q 1037.8 108 1048.2 107 Q 1049.6 106.8 1052 106.8 A 12.593 12.593 0 0 1 1055.044 107.151 A 9.516 9.516 0 0 1 1058.4 108.7 A 11.121 11.121 0 0 1 1059.507 109.615 Q 1060.648 110.701 1060.917 111.754 A 2.602 2.602 0 0 1 1061 112.4 A 17.409 17.409 0 0 1 1059.959 118.19 Q 1059.189 120.383 1057.849 122.65 A 32.136 32.136 0 0 1 1057.2 123.7 A 13.199 13.199 0 0 1 1050.341 129.005 Q 1048.155 129.793 1045.467 130.09 A 28.456 28.456 0 0 1 1044.2 130.2 Q 1031.292 130.983 1010.735 133.868 A 856.014 856.014 0 0 0 1009.8 134 Q 999.6 135.6 993.4 136.3 A 113.755 113.755 0 0 1 981.012 137 A 124.103 124.103 0 0 1 980.6 137 Q 972.6 137 968.2 134 A 9.744 9.744 0 0 1 963.913 126.845 A 14.567 14.567 0 0 1 963.8 125 Q 963.8 118.4 967.8 112.5 Q 971.8 106.6 979.2 99.6 Q 990.6 89 1012 70.8 Q 1029.8 55.8 1036.8 48.2 A 34.186 34.186 0 0 0 1040.491 43.47 Q 1043.8 38.288 1043.8 33.2 Z M 16 124.8 L 40.4 28 Q 40.2 28 27.4 29.4 A 762.035 762.035 0 0 0 22.033 29.836 Q 11.288 30.75 8.2 31.4 A 14.597 14.597 0 0 1 5.07 29.892 A 11.021 11.021 0 0 1 2.1 27.1 A 11.037 11.037 0 0 1 0.075 21.669 A 14.146 14.146 0 0 1 0 20.2 A 9.083 9.083 0 0 1 1.24 15.662 A 12.197 12.197 0 0 1 2.3 14.1 A 14.514 14.514 0 0 1 6.442 10.485 A 13.843 13.843 0 0 1 7.8 9.8 Q 16.83 7.994 32.385 6.677 A 501.505 501.505 0 0 1 35.8 6.4 Q 51.902 5.148 76.165 3.736 A 3983.169 3983.169 0 0 1 82 3.4 Q 94.462 2.881 99.884 2.362 A 64.252 64.252 0 0 0 101.4 2.2 Q 104.6 3.6 106.9 6.5 A 11.388 11.388 0 0 1 108.462 9.072 A 8.851 8.851 0 0 1 109.2 12.6 A 7.769 7.769 0 0 1 108.184 16.369 Q 107.288 18.007 105.6 19.6 Q 102 23 97.4 24.4 L 62.4 26.2 A 2.687 2.687 0 0 1 63.855 27.533 Q 64.434 28.613 64.563 30.472 A 16.328 16.328 0 0 1 64.6 31.6 Q 64.6 34 64.2 35.2 A 1266.708 1266.708 0 0 1 62.344 43.363 Q 59.75 54.61 56.117 69.596 A 3933.749 3933.749 0 0 1 54.9 74.6 Q 50.059 94.458 47.843 103.812 A 921.818 921.818 0 0 0 47 107.4 A 1169.381 1169.381 0 0 1 45.867 112.08 Q 45.325 114.298 44.832 116.273 A 710.211 710.211 0 0 1 44.8 116.4 L 43 123.6 A 35.687 35.687 0 0 1 41.699 128.035 Q 40.266 131.907 38.1 134.4 A 9.976 9.976 0 0 1 33.941 137.19 Q 31.216 138.2 27.4 138.2 A 29.082 29.082 0 0 1 24.174 138.034 Q 20.384 137.61 18.3 136.1 A 6.506 6.506 0 0 1 15.955 132.821 Q 15.574 131.699 15.454 130.314 A 15.31 15.31 0 0 1 15.4 129 Q 15.4 126.8 16 124.8 Z M 499.2 124.8 L 523.6 28 Q 523.4 28 510.6 29.4 A 762.035 762.035 0 0 0 505.233 29.836 Q 494.488 30.75 491.4 31.4 A 14.597 14.597 0 0 1 488.27 29.892 A 11.021 11.021 0 0 1 485.3 27.1 A 11.037 11.037 0 0 1 483.275 21.669 A 14.146 14.146 0 0 1 483.2 20.2 A 9.083 9.083 0 0 1 484.44 15.662 A 12.197 12.197 0 0 1 485.5 14.1 A 14.514 14.514 0 0 1 489.642 10.485 A 13.843 13.843 0 0 1 491 9.8 Q 500.03 7.994 515.585 6.677 A 501.505 501.505 0 0 1 519 6.4 Q 535.102 5.148 559.365 3.736 A 3983.169 3983.169 0 0 1 565.2 3.4 Q 577.662 2.881 583.084 2.362 A 64.252 64.252 0 0 0 584.6 2.2 Q 587.8 3.6 590.1 6.5 A 11.388 11.388 0 0 1 591.662 9.072 A 8.851 8.851 0 0 1 592.4 12.6 A 7.769 7.769 0 0 1 591.384 16.369 Q 590.488 18.007 588.8 19.6 Q 585.2 23 580.6 24.4 L 545.6 26.2 A 2.687 2.687 0 0 1 547.055 27.533 Q 547.634 28.613 547.763 30.472 A 16.328 16.328 0 0 1 547.8 31.6 Q 547.8 34 547.4 35.2 A 1266.708 1266.708 0 0 1 545.544 43.363 Q 542.95 54.61 539.317 69.596 A 3933.749 3933.749 0 0 1 538.1 74.6 Q 533.259 94.458 531.043 103.812 A 921.818 921.818 0 0 0 530.2 107.4 A 1169.381 1169.381 0 0 1 529.067 112.08 Q 528.525 114.298 528.032 116.273 A 710.211 710.211 0 0 1 528 116.4 L 526.2 123.6 A 35.687 35.687 0 0 1 524.899 128.035 Q 523.466 131.907 521.3 134.4 A 9.976 9.976 0 0 1 517.141 137.19 Q 514.416 138.2 510.6 138.2 A 29.082 29.082 0 0 1 507.374 138.034 Q 503.584 137.61 501.5 136.1 A 6.506 6.506 0 0 1 499.155 132.821 Q 498.774 131.699 498.654 130.314 A 15.31 15.31 0 0 1 498.6 129 Q 498.6 126.8 499.2 124.8 Z M 470 24.4 L 459 25.8 Q 455.6 40.8 443.4 90.4 L 437.8 112.8 L 453.2 111.2 A 20.866 20.866 0 0 1 456.521 112.988 Q 458.2 114.119 459.25 115.445 A 7.778 7.778 0 0 1 461 120.4 A 7.769 7.769 0 0 1 459.984 124.169 Q 459.088 125.807 457.4 127.4 Q 453.8 130.8 449.2 132.2 L 441.2 133.2 Q 416.968 135.838 401.975 138.611 A 210.439 210.439 0 0 0 396 139.8 A 14.597 14.597 0 0 1 392.87 138.292 A 11.021 11.021 0 0 1 389.9 135.5 A 11.037 11.037 0 0 1 387.875 130.069 A 14.146 14.146 0 0 1 387.8 128.6 A 8.044 8.044 0 0 1 390.469 122.636 Q 392.363 120.811 395.6 119.4 Q 403.256 117.869 408.099 117.041 A 165.472 165.472 0 0 1 410.8 116.6 L 432.8 29.2 Q 424.6 30.4 416.8 32 A 14.597 14.597 0 0 1 413.67 30.492 A 11.021 11.021 0 0 1 410.7 27.7 A 11.037 11.037 0 0 1 408.675 22.269 A 14.146 14.146 0 0 1 408.6 20.8 A 8.044 8.044 0 0 1 411.269 14.836 Q 413.163 13.011 416.4 11.6 Q 445 5.8 474 3.4 A 20.866 20.866 0 0 1 477.321 5.188 Q 479 6.319 480.05 7.645 A 7.778 7.778 0 0 1 481.8 12.6 A 7.769 7.769 0 0 1 480.784 16.369 Q 479.888 18.007 478.2 19.6 Q 474.6 23 470 24.4 Z M 1143.6 103.6 L 1129.4 104.8 A 3426.126 3426.126 0 0 1 1118.478 105.752 Q 1099.739 107.352 1094.053 107.567 A 39.834 39.834 0 0 1 1092.6 107.6 A 28.431 28.431 0 0 1 1088.989 107.385 Q 1087.147 107.149 1085.625 106.653 A 12.21 12.21 0 0 1 1082.9 105.4 Q 1079.4 103.2 1079.4 97 A 7.391 7.391 0 0 1 1079.908 94.406 Q 1080.715 92.253 1082.8 89.8 Q 1118.74 51.891 1136.232 33.844 A 1497.547 1497.547 0 0 1 1143 26.9 A 867.657 867.657 0 0 1 1150.138 19.709 Q 1160.9 9.005 1165.8 5.1 A 40.595 40.595 0 0 1 1168.863 2.869 Q 1172.058 0.78 1174.597 0.212 A 8.27 8.27 0 0 1 1176.4 0 A 30.884 30.884 0 0 1 1180.63 0.272 Q 1182.795 0.572 1184.586 1.203 A 14.496 14.496 0 0 1 1187 2.3 A 9.133 9.133 0 0 1 1189.194 4.014 A 6.815 6.815 0 0 1 1191 8.8 Q 1191 10.75 1190.868 11.512 A 2.034 2.034 0 0 1 1190.8 11.8 Q 1182 44.2 1173.6 83 L 1187.2 81.8 Q 1190.6 83.2 1192.8 85.8 Q 1195 88.4 1195 91.6 Q 1195 98.081 1184.281 100.021 A 39.732 39.732 0 0 1 1183.2 100.2 L 1169.8 101.2 L 1163.6 129.6 A 10.577 10.577 0 0 1 1162.973 133.316 A 9.287 9.287 0 0 1 1159.8 137.5 A 13.953 13.953 0 0 1 1153.566 140.145 A 18.885 18.885 0 0 1 1150.4 140.4 A 21.283 21.283 0 0 1 1146.753 140.105 Q 1144.643 139.738 1142.924 138.914 A 12.049 12.049 0 0 1 1141.8 138.3 A 6.737 6.737 0 0 1 1139.335 135.514 Q 1138.746 134.347 1138.407 132.822 A 19.601 19.601 0 0 1 1138 129.8 Q 1140 119 1143.6 103.6 Z M 136.829 138.182 A 58.216 58.216 0 0 0 151 139.8 Q 171.4 139.8 187.6 127.5 Q 203.8 115.2 212.9 95.9 A 104.848 104.848 0 0 0 215.522 89.862 A 88.459 88.459 0 0 0 222 57 Q 222 41.691 218.216 30.597 A 43.807 43.807 0 0 0 209.7 15.5 A 39.528 39.528 0 0 0 192.205 3.883 A 48.4 48.4 0 0 0 177 1.6 Q 156 1.6 139.2 12.6 Q 122.4 23.6 113 42.2 Q 103.6 60.8 103.6 82.6 Q 103.6 109 115.4 124.4 A 37.652 37.652 0 0 0 136.829 138.182 Z M 153.8 121.8 A 19.199 19.199 0 0 0 163.2 119.22 Q 166.141 117.588 169.044 114.926 A 47.115 47.115 0 0 0 173 110.8 A 72.681 72.681 0 0 0 181.763 97.808 Q 185.442 90.932 188.3 82.6 Q 194.2 65.4 194.2 47.6 A 65.155 65.155 0 0 0 193.864 40.724 Q 193.123 33.77 190.751 29.536 A 15.555 15.555 0 0 0 189.7 27.9 A 13.483 13.483 0 0 0 183.599 23.373 Q 181.234 22.446 178.25 22.065 A 35.236 35.236 0 0 0 173.8 21.8 A 27.496 27.496 0 0 0 156.148 28.248 A 39.909 39.909 0 0 0 151.4 32.8 A 70.026 70.026 0 0 0 140.869 48.66 A 90.352 90.352 0 0 0 136.2 60.2 Q 130.8 76.6 130.8 92 A 41.709 41.709 0 0 0 131.525 99.954 A 31.736 31.736 0 0 0 134.1 107.8 Q 137.4 114.6 142.7 118.2 A 21.246 21.246 0 0 0 148.451 121.003 A 18.264 18.264 0 0 0 153.8 121.8 Z M 1160 39 L 1114.8 88.2 A 181.89 181.89 0 0 1 1120.212 87.475 Q 1129.857 86.308 1147.8 84.8 Q 1152.338 65.963 1156.402 51.379 A 547.809 547.809 0 0 1 1160 39 Z" vector-effect="non-scaling-stroke"/></g></svg>